<?xml version="1.0" standalone="no"?>
<!DOCTYPE svg PUBLIC "-//W3C//DTD SVG 20010904//EN"
 "http://www.w3.org/TR/2001/REC-SVG-20010904/DTD/svg10.dtd">
<svg version="1.0" xmlns="http://www.w3.org/2000/svg"
 width="1500.000000pt" height="1500.000000pt" viewBox="0 0 1500.000000 1500.000000"
 preserveAspectRatio="xMidYMid meet">

<g transform="translate(0.000000,1500.000000) scale(0.100000,-0.100000)"
fill="#000000" stroke="none">
<path d="M3122 11857 c-21 -22 -22 -33 -22 -183 0 -155 1 -161 23 -182 l23
-22 642 0 642 0 0 -3875 0 -3875 -637 0 -637 0 -28 -27 -28 -27 0 -156 0 -156
28 -27 28 -27 2079 0 2079 0 28 27 28 27 0 156 0 156 -28 27 -28 27 -642 0
-642 0 0 3875 0 3875 649 0 650 0 20 26 c19 24 21 40 21 179 0 139 -2 155 -21
179 l-20 26 -2093 0 -2093 0 -21 -23z"/>
<path d="M8202 11857 c-21 -22 -22 -33 -22 -183 0 -155 1 -161 23 -182 l23
-22 663 0 c386 0 661 -4 659 -9 -1 -5 -748 -777 -1658 -1717 -910 -939 -1692
-1747 -1737 -1794 l-83 -88 1688 -2068 1687 -2069 -679 -3 -680 -2 -23 -22
c-22 -21 -23 -27 -23 -189 l0 -168 26 -20 27 -21 2077 0 2077 0 27 21 26 20 0
168 c0 162 -1 168 -23 189 -23 22 -26 22 -428 22 l-404 1 -2029 2448 c-1116
1347 -2029 2452 -2029 2456 1 4 622 646 1382 1426 l1382 1419 638 0 638 0 21
23 c21 22 22 33 22 183 0 155 -1 161 -23 182 l-23 22 -1600 0 -1601 0 -21 -23z"/>
</g>
</svg>
